<?xml version="1.0" encoding="UTF-8"?>
<!DOCTYPE svg PUBLIC "-//W3C//DTD SVG 1.1//EN" "http://www.w3.org/Graphics/SVG/1.1/DTD/svg11.dtd">
<svg xmlns="http://www.w3.org/2000/svg" className='text-' version="1.1" width="512px" height="512px" style="shape-rendering:geometricPrecision; text-rendering:geometricPrecision; image-rendering:optimizeQuality; fill-rule:evenodd; clip-rule:evenodd" xmlns:xlink="http://www.w3.org/1999/xlink">
<g><path style="opacity:0.993" fill="#ffe11a" d="M 309.5,-0.5 C 370.833,-0.5 432.167,-0.5 493.5,-0.5C 502.5,2.5 508.5,8.5 511.5,17.5C 511.5,78.8333 511.5,140.167 511.5,201.5C 487.498,201.333 463.498,201.5 439.5,202C 450.86,217.455 451.36,233.288 441,249.5C 427.1,265.099 410.6,268.599 391.5,260C 375.949,250.054 369.783,235.887 373,217.5C 374.565,211.87 377.065,206.703 380.5,202C 356.836,201.5 333.169,201.333 309.5,201.5C 309.333,177.164 309.5,152.831 310,128.5C 325.087,140.083 340.587,140.916 356.5,131C 370.857,119.078 375.023,104.244 369,86.5C 357.981,66.2446 341.481,59.7446 319.5,67C 316.059,68.776 312.892,70.9426 310,73.5C 309.5,48.8356 309.333,24.1689 309.5,-0.5 Z"/></g>
<g><path style="opacity:0.988" fill="#4e514e" d="M -0.5,280.5 C -0.5,228.833 -0.5,177.167 -0.5,125.5C 3.04976,116.789 9.38309,110.955 18.5,108C 79.4991,107.5 140.499,107.333 201.5,107.5C 201.333,131.502 201.5,155.502 202,179.5C 218.043,169.026 234.21,168.859 250.5,179C 265.685,193.692 268.518,210.525 259,229.5C 247.178,245.441 231.678,250.607 212.5,245C 208.581,243.46 205.081,241.293 202,238.5C 201.5,252.496 201.333,266.496 201.5,280.5C 190.167,280.5 178.833,280.5 167.5,280.5C 164.367,250.193 148.367,230.026 119.5,220C 82.9682,212.851 56.1349,225.684 39,258.5C 36.3807,265.311 34.5474,272.311 33.5,279.5C 22.1862,280.499 10.8529,280.832 -0.5,280.5 Z"/></g>
<g><path style="opacity:0.991" fill="#70584d" d="M 171.5,511.5 C 120.167,511.5 68.8333,511.5 17.5,511.5C 8.5,508.5 2.5,502.5 -0.5,493.5C -0.5,432.167 -0.5,370.833 -0.5,309.5C 23.5023,309.667 47.5023,309.5 71.5,309C 60.1418,293.558 59.6418,277.724 70,261.5C 84.708,245.29 101.875,242.124 121.5,252C 137.66,264.475 142.494,280.308 136,299.5C 134.545,302.912 132.712,306.079 130.5,309C 144.163,309.5 157.829,309.667 171.5,309.5C 171.5,320.833 171.5,332.167 171.5,343.5C 137.832,347.666 117.332,366.333 110,399.5C 107.809,443.12 128.143,469.12 171,477.5C 171.5,488.828 171.667,500.162 171.5,511.5 Z"/></g>
<g><path style="opacity:0.989" fill="#0f0b08" d="M 385.5,511.5 C 323.833,511.5 262.167,511.5 200.5,511.5C 200.833,487.824 200.5,464.157 199.5,440.5C 182.873,451.441 166.54,450.941 150.5,439C 139.108,427.265 135.608,413.432 140,397.5C 148.823,377.699 163.989,369.533 185.5,373C 190.977,374.322 195.811,376.822 200,380.5C 200.5,356.836 200.667,333.169 200.5,309.5C 225.169,309.333 249.836,309.5 274.5,310C 260.474,328.455 261.474,346.121 277.5,363C 290.996,372.741 305.329,374.074 320.5,367C 339.355,353.079 343.521,335.579 333,314.5C 331.471,313.271 330.304,311.771 329.5,310C 354.164,309.5 378.831,309.333 403.5,309.5C 403.667,370.501 403.5,431.501 403,492.5C 400.045,501.617 394.211,507.95 385.5,511.5 Z"/></g>
</svg>
